<svg id="Camada_1" data-name="Camada 1" xmlns="http://www.w3.org/2000/svg" viewBox="0 0 199 140"><defs><style>.cls-1{fill:#fff;}</style></defs><title>computer</title><path class="cls-1" d="M55.09,98.22h0a.44.44,0,0,1-.44-.44V91.11a.44.44,0,1,1,.88,0v6.67A.44.44,0,0,1,55.09,98.22Z"/><path class="cls-1" d="M56.67,98.22h0a.44.44,0,0,1-.44-.44V91.11a.44.44,0,1,1,.88,0v6.67A.44.44,0,0,1,56.67,98.22Z"/><path class="cls-1" d="M56.67,98.22h0a.44.44,0,0,1-.44-.44V91.11a.44.44,0,1,1,.88,0v6.67A.44.44,0,0,1,56.67,98.22Z"/><path class="cls-1" d="M58.25,98.22h0a.44.44,0,0,1-.44-.44V91.11a.44.44,0,0,1,.88,0v6.67A.44.44,0,0,1,58.25,98.22Z"/><path class="cls-1" d="M59.83,98.22h0a.44.44,0,0,1-.44-.44V91.11a.44.44,0,1,1,.88,0v6.67A.44.44,0,0,1,59.83,98.22Z"/><path class="cls-1" d="M61.41,98.22h0a.44.44,0,0,1-.44-.44V91.11a.44.44,0,1,1,.88,0v6.67A.44.44,0,0,1,61.41,98.22Z"/><path class="cls-1" d="M63,98.22h0a.44.44,0,0,1-.44-.44V91.11a.44.44,0,0,1,.88,0v6.67A.44.44,0,0,1,63,98.22Z"/><path class="cls-1" d="M64.57,98.22h0a.44.44,0,0,1-.44-.44V91.11a.44.44,0,0,1,.88,0v6.67A.44.44,0,0,1,64.57,98.22Z"/><path class="cls-1" d="M66.15,98.22h0a.44.44,0,0,1-.44-.44V91.11a.44.44,0,0,1,.88,0v6.67A.44.44,0,0,1,66.15,98.22Z"/><path class="cls-1" d="M67.73,98.22h0a.44.44,0,0,1-.44-.44V91.11a.44.44,0,0,1,.88,0v6.67A.44.44,0,0,1,67.73,98.22Z"/><path class="cls-1" d="M69.31,98.22h0a.44.44,0,0,1-.44-.44V91.11a.44.44,0,0,1,.88,0v6.67A.44.44,0,0,1,69.31,98.22Z"/><path class="cls-1" d="M70.89,98.22h0a.44.44,0,0,1-.44-.44V91.11a.44.44,0,0,1,.88,0v6.67A.44.44,0,0,1,70.89,98.22Z"/><path class="cls-1" d="M72.47,98.22h0a.44.44,0,0,1-.44-.44V91.11a.44.44,0,1,1,.88,0v6.67A.44.44,0,0,1,72.47,98.22Z"/><path class="cls-1" d="M74.05,98.22h0a.44.44,0,0,1-.44-.44V91.11a.44.44,0,0,1,.88,0v6.67A.44.44,0,0,1,74.05,98.22Z"/><path class="cls-1" d="M75.63,98.22h0a.44.44,0,0,1-.44-.44V91.11a.44.44,0,0,1,.88,0v6.67A.44.44,0,0,1,75.63,98.22Z"/><path class="cls-1" d="M77.21,98.22h0a.44.44,0,0,1-.44-.44V91.11a.44.44,0,0,1,.88,0v6.67A.44.44,0,0,1,77.21,98.22Z"/><path class="cls-1" d="M78.79,98.22h0a.44.44,0,0,1-.44-.44V91.11a.44.44,0,0,1,.88,0v6.67A.44.44,0,0,1,78.79,98.22Z"/><path class="cls-1" d="M80.37,98.22h0a.44.44,0,0,1-.44-.44V91.11a.44.44,0,0,1,.88,0v6.67A.44.44,0,0,1,80.37,98.22Z"/><path class="cls-1" d="M117.93,98.3H87v-19h30.89Zm-30.72-.17h30.55V79.52H87.21Z"/><path class="cls-1" d="M118.11,98.48H86.86V79.17h31.25ZM87.39,98h30.19V79.7H87.39Z"/><polygon class="cls-1" points="117.84 87.86 106.43 87.86 106.43 81.37 98.53 81.37 98.53 87.86 87.13 87.86 87.13 89.79 98.53 89.79 98.53 96.29 106.43 96.29 106.43 89.79 117.84 89.79 117.84 87.86"/><path class="cls-1" d="M150.4,98.48H119.16V79.17H150.4ZM119.69,98h30.19V79.7H119.69Z"/><polygon class="cls-1" points="150.14 87.86 138.73 87.86 138.73 81.37 130.83 81.37 130.83 87.86 119.42 87.86 119.42 89.79 130.83 89.79 130.83 96.29 138.73 96.29 138.73 89.79 150.14 89.79 150.14 87.86"/><rect class="cls-1" x="56.67" y="83.21" width="5.27" height="5.27"/><rect class="cls-1" x="79.84" y="73.73" width="4.91" height="2.28"/><rect class="cls-1" x="127.94" y="73.73" width="4.91" height="2.28"/><path class="cls-1" d="M143.84,74H69.91a2,2,0,0,1-2-2.1l1.93-47.43a2.89,2.89,0,0,1,2.89-2.78H141a2.89,2.89,0,0,1,2.89,2.78l1.93,47.43a1.94,1.94,0,0,1-.56,1.48A2,2,0,0,1,143.84,74ZM72.71,22.21a2.36,2.36,0,0,0-2.36,2.27L68.42,71.91a1.5,1.5,0,0,0,.41,1.1,1.52,1.52,0,0,0,1.08.46h73.93a1.48,1.48,0,0,0,1.07-.46,1.51,1.51,0,0,0,.42-1.1L143.4,24.48A2.36,2.36,0,0,0,141,22.21Z"/><path class="cls-1" d="M139.7,65.44l-1.64-37.55a2.17,2.17,0,0,0-2.23-2H77.91a2.17,2.17,0,0,0-2.23,2L74.05,65.44a1.37,1.37,0,0,0,.88,1.32v.12h63.54v0A1.42,1.42,0,0,0,139.7,65.44Zm-1.35,1.09H75.4a1.25,1.25,0,0,1-.47-1l1.59-36.17a2.1,2.1,0,0,1,2.17-1.93h56.37a2.11,2.11,0,0,1,2.17,1.93l1.59,36.17A1.28,1.28,0,0,1,138.35,66.53Z"/><rect class="cls-1" x="129.3" y="27.37" width="0.35" height="39.54" transform="translate(-2.05 6.07) rotate(-2.66)"/><rect class="cls-1" x="78.44" y="31.95" width="48.8" height="32.3" rx="3.78"/><path class="cls-1" d="M155.15,103.75h-.1l-4-3.69H50.52l1.07-21.17a3.76,3.76,0,0,1,3.77-3.58h97.23a3.76,3.76,0,0,1,3.77,3.58l1.13,22.4a2.34,2.34,0,0,1-2.34,2.46ZM51.08,99.53H151.3l3.95,3.69a1.84,1.84,0,0,0,1.22-.57,1.79,1.79,0,0,0,.49-1.34l-1.12-22.39a3.24,3.24,0,0,0-3.25-3.08H55.36a3.25,3.25,0,0,0-3.25,3.08Z"/><path class="cls-1" d="M163.46,118.32H35.54a2,2,0,0,1-2-2v-2.77a2,2,0,0,1,2-2H163.46a2,2,0,0,1,2,2v2.77A2,2,0,0,1,163.46,118.32ZM35.54,112A1.51,1.51,0,0,0,34,113.51v2.77a1.52,1.52,0,0,0,1.51,1.51H163.46a1.52,1.52,0,0,0,1.51-1.51v-2.77a1.51,1.51,0,0,0-1.51-1.51Z"/><path class="cls-1" d="M151.84,100.59h-.18l-.57-.53H84.63l-.07-.16a1.21,1.21,0,0,1-.09-.53l1.28-19.13a1.15,1.15,0,0,1,1.14-1.07h63.66a1.15,1.15,0,0,1,1.14,1.07L153,99.37a1.15,1.15,0,0,1-1.13,1.22ZM85,99.53h66.3l.56.53a.65.65,0,0,0,.42-.19.62.62,0,0,0,.17-.47l-1.29-19.13a.61.61,0,0,0-.61-.57H86.89a.61.61,0,0,0-.61.57L85,99.4A.53.53,0,0,0,85,99.53Z"/><path class="cls-1" d="M164,112H35.17l-.17-.47L49.39,99.59l.17-.06H151.19l.18.07,12.82,11.94ZM35.9,111.47H163.34l-12.25-11.41H49.66Z"/><rect class="cls-1" x="131.36" y="32.39" width="3.51" height="3.51"/><path class="cls-1" d="M134.43,52.67a1.41,1.41,0,0,1-1.4-1.41,1.37,1.37,0,0,1,.35-.92,2.46,2.46,0,0,0-1,1.8,1.49,1.49,0,0,0,1.49,1.49,2.25,2.25,0,0,0,1.84-1.87A1.4,1.4,0,0,1,134.43,52.67Z"/><path class="cls-1" d="M134.43,52.75a1.49,1.49,0,1,1,1.49-1.49A1.49,1.49,0,0,1,134.43,52.75Zm0-2.8a1.32,1.32,0,1,0,1.32,1.31A1.32,1.32,0,0,0,134.43,50Z"/><path class="cls-1" d="M134.52,58.2a1.4,1.4,0,0,1-1.06-2.33,2.48,2.48,0,0,0-1,1.8A1.49,1.49,0,0,0,134,59.16a2.26,2.26,0,0,0,1.84-1.87A1.4,1.4,0,0,1,134.52,58.2Z"/><path class="cls-1" d="M134.52,58.28A1.49,1.49,0,1,1,136,56.79,1.49,1.49,0,0,1,134.52,58.28Zm0-2.81a1.32,1.32,0,1,0,1.32,1.32A1.33,1.33,0,0,0,134.52,55.47Z"/><path class="cls-1" d="M88.48,103.47H84.32l1-2.71h3.94C88.92,101.85,88.77,102.39,88.48,103.47Z"/><path class="cls-1" d="M93.68,103.47H89.52c.27-1.08.4-1.62.67-2.71h3.93C94,101.85,93.86,102.39,93.68,103.47Z"/><path class="cls-1" d="M98.88,103.47H94.72c.15-1.08.23-1.62.39-2.71H99C99,101.85,98.94,102.39,98.88,103.47Z"/><path class="cls-1" d="M104.08,103.47H99.92l.1-2.71H104C104,101.85,104,102.39,104.08,103.47Z"/><path class="cls-1" d="M109.28,103.47h-4.16c-.07-1.08-.11-1.62-.18-2.71h3.93C109,101.85,109.12,102.39,109.28,103.47Z"/><path class="cls-1" d="M114.48,103.47h-4.16c-.19-1.08-.28-1.62-.46-2.71h3.93C114.07,101.85,114.2,102.39,114.48,103.47Z"/><path class="cls-1" d="M119.68,103.47h-4.16l-.75-2.71h3.94Z"/><path class="cls-1" d="M124.88,103.47h-4.16c-.41-1.08-.62-1.62-1-2.71h3.94Z"/><path class="cls-1" d="M130.07,103.47h-4.15c-.53-1.08-.79-1.62-1.31-2.71h3.93Z"/><path class="cls-1" d="M135.27,103.47h-4.16l-1.59-2.71h3.94C134.18,101.85,134.55,102.39,135.27,103.47Z"/><path class="cls-1" d="M86.67,110.22H81.94c.39-1.08.58-1.62,1-2.7h4.49Z"/><path class="cls-1" d="M92.57,110.22H87.85l.67-2.7H93Z"/><path class="cls-1" d="M98.48,110.22H93.75c.16-1.08.24-1.62.39-2.7h4.5C98.58,108.6,98.54,109.14,98.48,110.22Z"/><path class="cls-1" d="M104.38,110.22H99.66l.1-2.7h4.5C104.31,108.6,104.33,109.14,104.38,110.22Z"/><path class="cls-1" d="M110.29,110.22h-4.72c-.08-1.08-.11-1.62-.18-2.7h4.49C110.05,108.6,110.13,109.14,110.29,110.22Z"/><path class="cls-1" d="M116.19,110.22h-4.72c-.18-1.08-.28-1.62-.46-2.7h4.5Z"/><path class="cls-1" d="M122.1,110.22h-4.72l-.75-2.7h4.5Z"/><path class="cls-1" d="M128,110.22h-4.72c-.41-1.08-.61-1.62-1-2.7h4.5Z"/><path class="cls-1" d="M133.91,110.22h-4.73l-1.3-2.7h4.5C133,108.6,133.29,109.14,133.91,110.22Z"/><path class="cls-1" d="M139.81,110.22h-4.72c-.64-1.08-1-1.62-1.59-2.7H138Z"/><path class="cls-1" d="M84.24,106.85H79.8l1.12-2.71h4.22Z"/><path class="cls-1" d="M89.8,106.85H85.35c.34-1.09.51-1.63.84-2.71h4.22C90.16,105.22,90,105.76,89.8,106.85Z"/><path class="cls-1" d="M95.35,106.85H90.91l.55-2.71h4.22C95.55,105.22,95.48,105.76,95.35,106.85Z"/><path class="cls-1" d="M100.9,106.85H96.46c.11-1.09.16-1.63.27-2.71H101Z"/><path class="cls-1" d="M106.45,106.85H102v-2.71h4.22C106.31,105.22,106.36,105.76,106.45,106.85Z"/><path class="cls-1" d="M112,106.85h-4.44c-.11-1.09-.17-1.63-.29-2.71h4.22C111.69,105.22,111.8,105.76,112,106.85Z"/><path class="cls-1" d="M117.56,106.85h-4.44c-.23-1.09-.35-1.63-.58-2.71h4.22Z"/><path class="cls-1" d="M123.11,106.85h-4.44c-.35-1.09-.52-1.63-.86-2.71H122C122.46,105.22,122.68,105.76,123.11,106.85Z"/><path class="cls-1" d="M128.66,106.85h-4.44c-.46-1.09-.68-1.63-1.14-2.71h4.22C127.84,105.22,128.12,105.76,128.66,106.85Z"/><path class="cls-1" d="M134.21,106.85h-4.44l-1.42-2.71h4.22Z"/><path class="cls-1" d="M134.44,100.76l2.34,3.38h-3.16l1.7,2.71h7.77c-.83-1.09-1.25-1.63-2.09-2.71-1.05-1.35-1.58-2-2.63-3.38Z"/><path class="cls-1" d="M78.39,100.76h5.9c-.4,1.09-.61,1.63-1,2.71H77Z"/><path class="cls-1" d="M145.72,110.22H141c-.74-1.08-1.12-1.62-1.87-2.7h4.5Z"/><path class="cls-1" d="M80.76,110.22H73.68c.54-1.08.81-1.62,1.34-2.7h6.75C81.37,108.6,81.17,109.14,80.76,110.22Z"/><path class="cls-1" d="M74.46,103.64H71.08l1.77-2.88H76Z"/><path class="cls-1" d="M72.65,106.93h-3.6l1.77-2.87h3.41Z"/><path class="cls-1" d="M70.85,110.22H67l1.76-2.87h3.63Z"/><path class="cls-1" d="M70.54,103.64H67.17l2-2.88h3.18Z"/><path class="cls-1" d="M68.48,106.93h-3.6l2-2.87h3.4Z"/><path class="cls-1" d="M66.42,110.22H62.6l2-2.87h3.63Z"/><path class="cls-1" d="M66.63,103.64H63.26l2.21-2.88h3.19Z"/><path class="cls-1" d="M60.19,106.93h-3.6l5.24-6.17H65Z"/><path class="cls-1" d="M64.31,106.93h-3.6l2.22-2.87h3.4C65.53,105.21,65.12,105.78,64.31,106.93Z"/><path class="cls-1" d="M62,110.22H58.17l2.22-2.87H64C63.21,108.5,62.8,109.07,62,110.22Z"/><path class="cls-1" d="M57.61,110.22H53.79l2.44-2.87h3.63Z"/><path class="cls-1" d="M166.21,0H0V140H199V0ZM33.54.75H66V23H33.54ZM.75.75h32V23H.75Zm0,23h32V46.29H.75ZM.75,47h32V69.63H.75Zm0,23.34h32V93H.75Zm197.5,45.91H168.5a4.53,4.53,0,0,1-.08.75h29.83v22.21h-32V120.49a5.46,5.46,0,0,1-.75.41v18.35H133V121.31h-.75v17.94H99.88V121.31h-.75v17.94H66.71V121.31H66v17.94H33.54V120.9a5.46,5.46,0,0,1-.75-.41v18.76H.75V117H30.58a4.53,4.53,0,0,1-.08-.75H.75V93.71h32v15.6a5,5,0,0,1,.59-.34l.16-.13V93.71h14.3l0-.75H33.54V70.38H65l0-.75H33.54V47H65.9l0-.75H33.54V23.71H66V45.6l.75-18.44V23.71h.17a5.86,5.86,0,0,1,.17-.75h-.34V.75H99.13V18.69h.75V.75h32.41V18.69H133V.75h32.42V23H146.69a5.86,5.86,0,0,1,.17.75h18.6V46.29H147.81l0,.75h17.62V69.63h-16.7l0,.75h16.67V93h-5.39l0,.75h5.35v14.91l.67.63.08.06V93.71h32Zm0-23.33h-32V70.38h32Zm0-23.33h-32V47h32Zm0-23.34h-32V23.71h32Zm0-23.33h-32V.75h32Z"/></svg>