<svg xmlns="http://www.w3.org/2000/svg" viewBox="0 0 119.36 14.98"><defs><style>.cls-1{fill:#fff;}</style></defs><title>Ativo 1</title><g id="Camada_2" data-name="Camada 2"><g id="Camada_1-2" data-name="Camada 1"><path class="cls-1" d="M0,12.13V2.53H2.4v9.6Zm2.4-9.6V.13H7.2v2.4Zm0,12v-2.4H7.2v2.4Zm4.8-9.6V2.53H9.6v2.4Zm0,7.2V9.73H9.6v2.4Z"/><path class="cls-1" d="M12,12.13V2.53h2.4v9.6Zm2.4-9.6V.13h4.8v2.4Zm0,12v-2.4h4.8v2.4Zm4.8-2.4V2.53h2.4v9.6Z"/><path class="cls-1" d="M24,12.13V2.53h2.4v9.6Zm2.4-9.6V.13h4.8v2.4Zm0,12v-2.4h4.8v2.4Zm4.8-2.4V2.53h2.4v9.6Z"/><path class="cls-1" d="M36,14.53V.13h2.4v12h7.2v2.4Z"/><path class="cls-1" d="M48,14.53V.13h7.2v2.4H50.4v9.6h4.8v2.4Zm7.2-2.4V2.53h2.4v9.6Z"/><path class="cls-1" d="M60,12.13V2.53h2.4v9.6Zm2.4-9.6V.13h4.8v2.4Zm0,12v-2.4h4.8v2.4Zm4.8-2.4V2.53h2.4v9.6Z"/><path class="cls-1" d="M72,12.13V.13h2.4v12Zm2.4,2.4v-2.4h2.4v2.4Zm2.4-2.4V7.33h2.4v4.8Zm2.4,2.4v-2.4h2.4v2.4Zm2.4-2.4V.13H84v12Z"/><path class="cls-1" d="M86.4,14.53V.13h2.4v2.4h2.4v2.4H88.8v9.6Zm7.2,0V7.33H91.2V4.93h2.4V.13H96v14.4Z"/><polygon class="cls-1" points="110.71 0 102.06 14.98 119.36 14.98 110.71 0"/></g></g></svg>