<svg id="Camada_1" data-name="Camada 1" xmlns="http://www.w3.org/2000/svg" viewBox="0 0 200 141"><defs><style>.cls-1{fill:#fff;}</style></defs><title>emp</title><path class="cls-1" d="M118.81,69.93l2.63,2.64,1.29,1.29.23.23,0,0a1.49,1.49,0,0,0,1.84-.2L134,64.67a1.49,1.49,0,0,0,.21-1.84l0,0-.24-.24-.36-.36a11.69,11.69,0,0,0-.17-16.35l-3.34-3.34,5.71-5.71-6.07-6.07L142.3,18.21a1.47,1.47,0,0,0,1.76-.24,1.48,1.48,0,1,0-2.33-.33L129.2,30.17l-2.46-2.47L121,33.41l-3.34-3.34a11.69,11.69,0,0,0-16.35-.17l-.36-.36-.24-.24,0,0a1.49,1.49,0,0,0-1.84.21l-9.19,9.18a1.49,1.49,0,0,0-.2,1.84l0,0,.23.23L91,42.11l2.64,2.63,1.46,1.47-1.44,1.44-.83.83a6.9,6.9,0,0,0-.46-.52,4.84,4.84,0,0,0-3-1.45c-2.34-.24-4.89,1.26-7.57,4.46a34.44,34.44,0,0,0-4.24,6.23c-1,.84-2,1.8-3.11,2.88A44.51,44.51,0,0,0,68.7,67c-3.32,1.81-5.59,3.41-5.81,6a2.9,2.9,0,0,0,.72,2.43,2.69,2.69,0,0,0,1.15.66,3.28,3.28,0,0,1-.43.88l-.88.88-1.63,1.62-1.44,1.45-1.46-1.47-2.64-2.63L55,75.52l-.23-.23,0,0a1.49,1.49,0,0,0-1.84.21L43.71,84.7a1.49,1.49,0,0,0-.21,1.84l0,0,.23.23.36.36a11.71,11.71,0,0,0,.17,16.36L60,119.31a11.71,11.71,0,0,0,16.36.17l.36.36.23.23,0,0a1.49,1.49,0,0,0,1.84-.21L88,110.66a1.49,1.49,0,0,0,.21-1.84l0,0-.23-.23-1.29-1.29-2.64-2.64-1.46-1.46,1.45-1.44.51-.52a4.9,4.9,0,0,0,.53.63,4.73,4.73,0,0,0,3,1.4c2.41.17,5.08-1.45,7.94-4.83a38.49,38.49,0,0,0,4.28-6,56.21,56.21,0,0,0,4.75-4.27,50,50,0,0,0,6.14-7.3c2.84-1.7,4.74-3.31,5-5.66a2.87,2.87,0,0,0-.67-2.47,2.51,2.51,0,0,0-.31-.26l.26-.91a11.17,11.17,0,0,1,.64-1.86l1.16-1.16ZM75.81,106l-3.2-3.21,4.47-4.47,3.2,3.2Zm-3,9.21-2.76-2.76L74.54,108l2.76,2.76Zm4.83-4.13,2.29,2.29-4.48,4.48-2.28-2.29Zm-7.94,1-3.2-3.2L71,104.42l3.2,3.2ZM50.18,83.61l2.29,2.29L48,90.37,45.7,88.09Zm2.64,2.64L55.58,89,51.1,93.49l-2.76-2.76Zm3.11,3.11,3.2,3.21L54.66,97l-3.2-3.2Zm16.32,13.08L69,99.14l4.48-4.48,3.3,3.3ZM68.89,90.12,64.41,94.6l-3.3-3.3,4.48-4.48Zm.35.36,3.83,3.83L68.6,98.79,64.76,95Zm-4-4-4.48,4.47-3.2-3.2L62,83.27Zm-5.74,6.45,3.3,3.3-4.48,4.48L55,97.4Zm3.65,3.66L67,100.41l-4.47,4.47-3.83-3.83Zm4.19,4.18,3.3,3.3-4.48,4.48-3.3-3.3ZM60.91,81.08l.91-.91,21.56,21.56-.91.91Zm.77,1.83L57.2,87.39l-2.76-2.76,4.48-4.48ZM58.56,79.8l-4.47,4.48L51.8,82l4.48-4.48Zm-2.63-2.64-4.48,4.48-1.17-1.17L54.76,76Zm-1.56-1.48-4.44,4.44-.47-.47,3.79-3.78A1,1,0,0,1,54.37,75.68ZM44.06,85.06l3.78-3.79.47.47-4.44,4.44A1,1,0,0,1,44.06,85.06Zm4.6-3,1.17,1.17-4.48,4.48-.93-.93-.24-.24ZM60.39,119,44.6,103.16a11.2,11.2,0,0,1-.18-15.65l.58.58,2.63,2.64,3.12,3.11L54.3,97.4,58,101.05l4.54,4.54,3.65,3.66,3.56,3.55,3.11,3.12,2.64,2.63.58.58A11.2,11.2,0,0,1,60.39,119Zm16.35.18-.93-.93,4.48-4.48,1.17,1.17L77,119.37Zm.63.55,4.44-4.44.46.47-3.78,3.78A1,1,0,0,1,77.37,119.68Zm10.31-9.38-3.78,3.79-.47-.47,4.44-4.44A1,1,0,0,1,87.68,110.3Zm-.12-1.51-4.48,4.48-1.17-1.17,4.48-4.48ZM86,107.27l-4.47,4.48-2.29-2.29L83.75,105Zm-7.11,1.84-2.76-2.76,4.48-4.48,2.76,2.76Zm23-65.73,3.2,3.2-4.48,4.48-3.2-3.2Zm3.34-9.56A11.2,11.2,0,0,1,120.9,34l8.66,8.65a11.21,11.21,0,0,1,.17,15.65L117.5,46.05Zm22.28,31.94-2.28-2.28L129.74,59,132,61.28ZM105.47,46.93l3.3,3.31-4.47,4.48L101,51.41Zm12.77,9.53-3.31-3.31,4.48-4.47,3.3,3.3Zm-9.11-5.87L113,54.42l-4.48,4.48-3.83-3.83ZM110.75,49l4.48-4.48,3.83,3.83-4.48,4.48Zm4.12-4.83-4.47,4.48-3.31-3.31,4.48-4.47Zm-6,15.11,4.48-4.47,3.31,3.3-4.48,4.48Zm8.14-.82,3.2,3.2-4.48,4.48-3.2-3.2Zm1.62-1.62,4.48-4.48,3.2,3.2L121.79,60Zm8-.92,2.76,2.76-4.48,4.48-2.76-2.77ZM104.55,33.81l-4.48,4.48L97.79,36l4.47-4.48Zm.35.36,2.76,2.76-4.48,4.48-2.76-2.77ZM108,37.28l3.2,3.2L106.74,45l-3.2-3.2Zm8,29.18L120.52,62l2.76,2.76-4.47,4.47Zm3.12,3.12,4.48-4.48,2.28,2.28-4.48,4.48Zm2.64,2.63,4.47-4.47,1.17,1.16L123,73.38Zm1.56,1.49,4.43-4.44.47.46-3.78,3.78A1,1,0,0,1,123.36,73.7Zm10.3-9.38-3.78,3.78-.46-.46,4.43-4.44A1,1,0,0,1,133.66,64.32Zm-4.6,3-1.17-1.16,4.48-4.48.76.75.41.42Zm4.24-5.42-3.22-3.22A11.7,11.7,0,0,0,132,45l1.18,1.18A11.21,11.21,0,0,1,133.3,61.86Zm-6.56-33.45,8.4,8.4-5.35,5.36-8.41-8.41Zm-9.4,2,1.18,1.18a11.7,11.7,0,0,0-13.61,1.87l-3.22-3.22A11.21,11.21,0,0,1,117.34,30.42ZM101,30.24l.93.94-4.48,4.48-1.16-1.17L100.74,30Zm-.63-.54-4.44,4.43-.46-.46,3.78-3.78A1,1,0,0,1,100.35,29.7Zm-10.3,9.37,3.78-3.78.46.46-4.44,4.44A1,1,0,0,1,90.05,39.07Zm.12,1.52,4.48-4.48,1.16,1.17-4.47,4.47Zm1.52,1.52,4.48-4.48,2.28,2.28L94,44.39Zm7.11-1.84L101.56,43l-4.47,4.48-2.77-2.77Zm13.3,39.19a28.35,28.35,0,0,0,3-6.38l.05,0a2.24,2.24,0,0,1,.48,1.92C115.39,76.79,114.1,78.13,112.1,79.46Zm-1,.64c-1,.64-2.25,1.3-3.56,2l-.07,0-1.13.62c-2.84,1.56-3.69,3.37-4.86,5.88-.5,1.07-1.06,2.26-1.85,3.63-5.87,4.52-9.68,5-11.09,5l.41-.41-2-2L109,72.75l2,2,1.62-1.62.61-.61a3,3,0,0,1,1.36.25A27.94,27.94,0,0,1,111.1,80.1ZM86.62,98.48l-.91.92L64.15,77.84l.92-.91ZM68,68.2a26.08,26.08,0,0,0-3,7.26,2.16,2.16,0,0,1-.86-.5,2.24,2.24,0,0,1-.52-1.88C63.71,71.08,65.4,69.68,68,68.2Zm.91-.51c.71-.39,1.48-.8,2.29-1.22l.07,0,1.08-.57c2.71-1.43,3.48-3.17,4.55-5.57.41-.91.85-1.91,1.46-3,5.56-4.61,9.46-5.49,11.32-5.59l-.86.85,2,2L68.71,76.62l-2-2-1,1-.3,0A26,26,0,0,1,68.86,67.69Zm18,26.56L69.3,76.74,90.92,55.12l17.51,17.51Zm2.67-41.74.86-.86h.12L112,73.15l-.91.92ZM65.54,75.74l-.25.26c0-.09,0-.18.07-.28Zm47.9-3.37.32-.32a3.26,3.26,0,0,1,1,.26c0,.11-.06.21-.1.32A3.32,3.32,0,0,0,113.44,72.37Zm-23-21.48-.26.26c-1.59,0-5.43.43-11.16,4.9a35.09,35.09,0,0,1,3.35-4.65c2.54-3,4.9-4.46,7-4.24a4.38,4.38,0,0,1,3,1.78l-.33.33Zm23.88,19.94L92.72,49.27l.92-.91,21.55,21.55ZM82,51.07c2.64-3.15,5.14-4.63,7.42-4.4a4.76,4.76,0,0,1,2.86,1.4,4.89,4.89,0,0,1,.46.53l-.22.22A4.54,4.54,0,0,0,89.36,47c-2.18-.22-4.58,1.23-7.16,4.3a34.75,34.75,0,0,0-3.58,5.05l-.7.57A34.67,34.67,0,0,1,82,51.07Zm-7.13,9.37c.75-.75,1.47-1.43,2.17-2.06-.27.58-.51,1.12-.74,1.63C75.2,62.38,74.5,64,72,65.28l-1.07.56-.09,0-1.17.62A45.67,45.67,0,0,1,74.82,60.44ZM63.72,75.3A2.76,2.76,0,0,1,63.05,73c.27-3,3.45-4.66,7.85-7L71,66l1.06-.56c2.58-1.36,3.29-3,4.36-5.36.27-.61.56-1.27.91-2l.65-.56c-.51,1-.91,1.88-1.27,2.7-1.06,2.37-1.82,4.08-4.48,5.49l-1.08.57-.07,0c-4.32,2.27-7.45,3.91-7.7,6.75a2.39,2.39,0,0,0,.57,2,2.14,2.14,0,0,0,.94.54c0,.09,0,.19-.07.28v0A2.53,2.53,0,0,1,63.72,75.3Zm22,24.8,1.62-1.62.73-.73c1,.11,4.7.17,10.86-4.31A39.42,39.42,0,0,1,95.56,98c-2.71,3.21-5.19,4.75-7.37,4.6a4.25,4.25,0,0,1-3.07-1.79l0-.06Zm10.23-1.79c-2.82,3.33-5.45,4.93-7.79,4.76a4.54,4.54,0,0,1-2.9-1.35,4,4,0,0,1-.5-.59L85,101a4.36,4.36,0,0,0,3.15,1.79c2.23.16,4.76-1.4,7.5-4.65a39.75,39.75,0,0,0,3.61-4.92l.71-.54A39.69,39.69,0,0,1,95.94,98.31Zm8.8-10.57c-1.32,1.32-2.58,2.47-3.76,3.45.42-.81.77-1.56,1.1-2.26,1.16-2.48,1.93-4.12,4.58-5.58l1.09-.59.11-.07,2.35-1.29A52.11,52.11,0,0,1,104.74,87.74Zm10.73-15a2.7,2.7,0,0,1,.62,2.33c-.37,3.1-3.7,4.92-8.31,7.44l-.11.06-1.09.6c-2.7,1.48-3.47,3.14-4.65,5.65-.37.79-.78,1.65-1.28,2.61L100,92c.69-1.23,1.2-2.31,1.66-3.29,1.16-2.48,2-4.27,4.79-5.8l1.13-.63.07,0c4.53-2.46,7.79-4.25,8.14-7.18a2.37,2.37,0,0,0-.53-2.06l-.11-.1c0-.12.07-.23.11-.34A2.25,2.25,0,0,1,115.47,72.78Zm-.64-.63a3.14,3.14,0,0,0-.92-.24l.37-.38,1-1c-.08.26-.16.54-.25.85Z" transform="translate(0.5 0.5)"/><polygon class="cls-1" points="133.67 42.23 132.79 43.11 133.67 43.99 133.67 42.23"/><path class="cls-1" d="M-.5-.5v141h200V-.5ZM100,.5h32.17V22.83H100ZM66.83.5H99V22.83H66.83ZM33.67.5H65.83V22.83H33.67Zm0,23.33H65.83V46.17H33.67Zm-1,115.67H.5V117.17H32.67Zm0-23.33H.5V93.83H32.67Zm0-23.34H.5V70.5H32.67Zm0-23.33H.5V47.17H32.67Zm0-23.33H.5V23.83H32.67Zm0-23.34H.5V.5H32.67Zm99.5,116.67H100V117.17h32.17Zm33.16,0H133.17V117.17h32.16Zm0-23.33H133.17V93.83h32.16Zm0-23.34H133.17V70.5h32.16Zm0-70H140.27l-1,1h26.06V46.17H135.66a11.9,11.9,0,0,1,.7,1h29V69.5H133.17V67.76l-1,1v.74h-.75l-1,1h1.75V92.83h-29.5c-.39.34-.78.66-1.17,1l0,0h30.69v22.34H100v-20c-.32.46-.65.92-1,1.38v18.66H84.76l-1,1H99V139.5H66.83V124.31c-.33,0-.66-.08-1-.14V139.5H33.67V117.17H55.48l-1-1H33.67V93.83h5.57c0-.33.09-.67.15-1H33.67V70.5H61.8a7.27,7.27,0,0,1,.67-1H33.67V47.17H65.83V66.7l1-.6V47.17H83.17a13.06,13.06,0,0,1,1.4-1H66.83V23.83H99v3.91a3.08,3.08,0,0,1,1-.11v-3.8h32.17v.78l1.77-1.78h-.77V.5h32.16ZM198.5,139.5H166.33V117.17H198.5Zm0-23.33H166.33V93.83H198.5Zm0-23.34H166.33V70.5H198.5Zm0-23.33H166.33V47.17H198.5Zm0-23.33H166.33V23.83H198.5Zm0-23.34H166.33V.5H198.5Z" transform="translate(0.5 0.5)"/><polygon class="cls-1" points="132.67 31.57 133.67 32.57 133.67 30.44 132.67 31.44 132.67 31.57"/></svg>