<svg id="Camada_1" data-name="Camada 1" xmlns="http://www.w3.org/2000/svg" viewBox="0 0 200 141"><defs><style>.cls-1{fill:#fff;}</style></defs><title>jammer</title><polygon class="cls-1" points="100.46 94.36 96.88 92.3 93.3 94.36 93.3 98.5 96.88 100.56 100.46 98.5 100.46 94.36"/><polygon class="cls-1" points="101.55 99.13 96.88 101.82 96.88 102.9 102.49 99.67 102.49 93.19 96.88 89.96 96.88 91.04 101.55 93.73 101.55 99.13"/><polygon class="cls-1" points="103.83 100.44 96.88 104.46 96.88 106.07 105.23 101.25 105.23 91.61 96.88 86.79 96.88 88.4 103.83 92.42 103.83 100.44"/><polygon class="cls-1" points="106.57 90.83 106.57 102.03 96.88 107.62 96.88 109.86 108.51 103.15 108.51 89.71 96.88 83 96.88 85.24 106.57 90.83"/><rect class="cls-1" x="85" y="79.32" width="3" height="0.64"/><rect class="cls-1" x="85" y="81.48" width="3" height="0.64"/><rect class="cls-1" x="85" y="83.59" width="3" height="0.93"/><rect class="cls-1" x="85" y="85.72" width="3" height="1.37"/><rect class="cls-1" x="85" y="88.76" width="3" height="2"/><rect class="cls-1" x="85" y="91.86" width="3" height="2.92"/><rect class="cls-1" x="85" y="95.95" width="3" height="18.13"/><path class="cls-1" d="M129.66,119.82V106.37l5.11-.21V106h0c.29,0,.52-1.26.52-2.83s-.23-2.82-.52-2.82h0v-.2l-5.11-.21V74.38a4,4,0,0,0-3.35-3.9l-3.37-1H111.76v-8h61.17V55.69H111.26a4.62,4.62,0,1,0-6.74,6.3v7.47H93.88L88,63.54l43.26-43.26-4-4.05L83.76,59.64l-.2.2a4.62,4.62,0,1,0,0,9.21v.35l1.19.06h-40a4,4,0,0,0-4,4v26a7,7,0,0,1-.85-.68V77.61L32.56,70v-.15H26.07v23h.08l7.37,7.86h1.82c0,.89,0,1.9,0,2.93.24,6.44,1.22,7.42,1.54,7.74A9.74,9.74,0,0,1,38.25,113a23.57,23.57,0,0,0,2.47,2.89v4a4,4,0,0,0,4,4h81A4,4,0,0,0,129.66,119.82Zm-2.49-103,3.46,3.46L87.8,63.12A4.88,4.88,0,0,0,86.57,61a4.75,4.75,0,0,0-2.32-1.29ZM80.93,66.67a3.15,3.15,0,1,1,4.45,0A3.14,3.14,0,0,1,80.93,66.67Zm7.91,2.59-4-.21a5.84,5.84,0,0,0,1.7-1.19A4.86,4.86,0,0,0,88,64.44c0-.1,0-.2,0-.3l5.17,5.17Zm45.51,31.28a11.71,11.71,0,0,0,0,5.18v0l-6.72.27,0,.12a.89.89,0,0,1,0,.1,8,8,0,0,1-.41-3.12,8,8,0,0,1,.41-3.11.89.89,0,0,1,0,.1l0,.12,6.72.27Zm38.16-44.43V61H111.94a4.81,4.81,0,0,0-.12-4.89Zm-67.94,2.55a3.15,3.15,0,1,1,3.15,3.14A3.15,3.15,0,0,1,104.57,58.66Zm.37,4a4.82,4.82,0,0,0,6.4-.76v7.61h-6.4ZM38.75,78.06V97.4a.49.49,0,0,0-.3.14l-4.92-5.09V72.65ZM27.18,91.78V71h4.26V91.78Zm12,20.53a11.56,11.56,0,0,0-1.43-1.67c-1-1-1.27-5.75-1.27-9.88H40l-.14-.15v-.43c.24.17.53.36.85.56v13.49A20.8,20.8,0,0,1,39.15,112.31Zm4.73-10.73V117a5.35,5.35,0,0,1-1.57-1.12c-.46-.46-.84-.86-1.17-1.21V101l.24.13A4.64,4.64,0,0,0,43.88,101.58Zm8.32,15.83a.53.53,0,0,0,.27-.3h1l0-.12s0-.06,0-.09a.48.48,0,0,1,1,0s0,.06,0,.09l0,.12h1.23l0-.12s0-.06,0-.09a.47.47,0,1,1,.94,0,.28.28,0,0,1,0,.09l0,.12h1.22l0-.12a.28.28,0,0,1,0-.09.47.47,0,0,1,.94,0,.28.28,0,0,1,0,.09l0,.12h1.22l0-.12a.28.28,0,0,1,0-.09.47.47,0,0,1,.94,0s0,.06,0,.09l0,.12h1.23l0-.12s0-.06,0-.09a.47.47,0,0,1,.47-.47.48.48,0,0,1,.48.47s0,.06,0,.09l0,.12h8.63V99.77H63a5.69,5.69,0,0,0-.13-1.51H72.93v19.95H50.09A13.33,13.33,0,0,0,52.2,117.41Zm5.2-20.34a9.41,9.41,0,0,1,1.44-.31,3.09,3.09,0,0,1,2,.31Zm4.29,1.19a4.83,4.83,0,0,1,.17,1.51H60.59l0,.12a.59.59,0,0,1,0,.13.47.47,0,0,1-.94,0,.3.3,0,0,1,0-.13l0-.12H58.5l0,.12a.59.59,0,0,1,0,.13.47.47,0,0,1-.94,0,.59.59,0,0,1,0-.13l0-.12H56.4l0,.12a.3.3,0,0,1,0,.13.47.47,0,0,1-.94,0,.59.59,0,0,1,0-.13l0-.12H54.3l0,.12a.59.59,0,0,1,0,.13.48.48,0,0,1-1,0,.59.59,0,0,1,0-.13l0-.12H52.2l0,.12a.59.59,0,0,1,0,.13.47.47,0,0,1-.94,0,.3.3,0,0,1,0-.13l0-.12h-1l2.12-.87,1.58-.64Zm.13,1.89a.69.69,0,0,1,0-.13.59.59,0,0,1,0-.13l0-.12A2.12,2.12,0,0,1,61.82,100.15Zm-11.69-.29v0a.3.3,0,0,1,0,.13.47.47,0,0,1-.91.17C49.55,100.09,49.84,100,50.13,99.86Zm-3.67.1-.06,0v0Zm2.61.3a.67.67,0,0,0,1.29-.24s0,0,0-.06h.78a.13.13,0,0,0,0,.06.67.67,0,0,0,1.33,0V100h.77V100a.67.67,0,0,0,1.33,0V100h.77V100a.67.67,0,0,0,1.33,0,.13.13,0,0,0,0-.06h.78V100a.66.66,0,1,0,1.32,0V100h.78a.13.13,0,0,0,0,.06.67.67,0,0,0,1.33,0V100h.77V100a.68.68,0,0,0,.34.58.58.58,0,0,0,.33.19.56.56,0,0,0,.64-.46,1.94,1.94,0,0,0,0-.37h8.19v17H62.94a.67.67,0,1,0-1.33,0h-.77a.67.67,0,1,0-1.33,0h-.77a.66.66,0,1,0-1.32,0h-.77a.67.67,0,1,0-1.33,0h-.77a.67.67,0,1,0-1.33,0H52.5a.44.44,0,0,0-.06-.25.52.52,0,0,0-.12-.17.66.66,0,0,0-1.15.15l-.71.27h-.11a.66.66,0,1,0-1.32,0h-.77a.67.67,0,1,0-1.33,0H46.4V101.13C47.26,100.9,48.16,100.6,49.07,100.26Zm25.1,17.95V97.07H62.36a3.41,3.41,0,0,0-.37-.48,3.74,3.74,0,0,0-3.28-.94,20.82,20.82,0,0,0-4.66,1.42H45.26V73.65h75.93v44.56Zm-23-19.95c-1.35.55-2.73,1.09-4,1.51h-.89V100l-1,.24v-2Zm-4.92,2.92v15.93h.95l0-.12s0-.06,0-.09a.47.47,0,1,1,.94,0,.28.28,0,0,1,0,.09l0,.12h1.22l0-.12a.28.28,0,0,1,0-.09.47.47,0,0,1,.94,0,.28.28,0,0,1,0,.09v0a10.11,10.11,0,0,1-4.89.43v-16C45.57,101.34,45.89,101.27,46.21,101.18Zm-5.07,15.11.38.39a6.66,6.66,0,0,0,2.36,1.55v1.4h78.68V72.23H43.88v28.24a3.61,3.61,0,0,1-2-.32l-.78-.46V73.41a3.53,3.53,0,0,1,3.53-3.53h76.91a3.64,3.64,0,0,1,1.48.32l.59.35,1.12,1.34v0a1,1,0,0,1,.07.15l0,0,0,.12a.19.19,0,0,0,0,.07l0,.1,0,.09a.24.24,0,0,0,0,.08s0,.07,0,.1,0,0,0,.08,0,.07,0,.1,0,.06,0,.09,0,.06,0,.09,0,.07,0,.11v.08a1.15,1.15,0,0,1,0,.19v45.44a3.53,3.53,0,0,1-3.53,3.52H44.67a3.53,3.53,0,0,1-3.53-3.52Zm3.53,7.06a3.54,3.54,0,0,1-3.35-2.42.05.05,0,0,1,0,0l.09.13,0,.06.1.14,0,0,.15.17,0,0,.13.12,0,0,.12.11,0,0,.17.14h0l.16.12.06,0,.14.09.06,0,.17.09,0,0,.21.09.06,0,.15.06.07,0,.17.05h0l.23,0h0l.19,0h.07l.17,0h77.22a4,4,0,0,0,4-3.94V73.41c0-.07,0-.15,0-.22a.25.25,0,0,0,0-.08.49.49,0,0,0,0-.12.41.41,0,0,0,0-.11s0-.07,0-.1a.43.43,0,0,1,0-.11.3.3,0,0,1,0-.1l0-.1a.3.3,0,0,0,0-.1l0-.1a.36.36,0,0,0,0-.11s0-.06,0-.08l-.06-.16,0,0-.09-.2h0a4,4,0,0,0-1.19-1.45h0l0,0-.06,0,2.37.72h0a3.55,3.55,0,0,1,3,3.49V99.89l-1.33-.06a.46.46,0,0,0-.38-.27c-.78,0-.82,3-.82,3.57s0,3.58.82,3.58a.45.45,0,0,0,.38-.28l1.33-.05v13.44a3.53,3.53,0,0,1-3.53,3.53Z" transform="translate(0.5 0.5)"/><path class="cls-1" d="M65.58,116.29h5.26a.17.17,0,0,0,.16-.17v-2.46a.16.16,0,0,0-.16-.16H67.58V106h2.85a.16.16,0,0,0,.16-.16V101.3a.16.16,0,0,0-.16-.16H65.58a.16.16,0,1,0,0,.32h4.68v4.19H67.42a.16.16,0,0,0-.16.16v7.85a.17.17,0,0,0,.16.17h3.25V116H65.58a.17.17,0,1,0,0,.33Z" transform="translate(0.5 0.5)"/><path class="cls-1" d="M63.69,115.51V102.05a.16.16,0,0,0-.16-.16H47.47a.16.16,0,0,0-.16.16v13.46a.16.16,0,0,0,.16.16H63.53A.16.16,0,0,0,63.69,115.51Zm-16.06-.16V102.21H63.36v13.14Z" transform="translate(0.5 0.5)"/><path class="cls-1" d="M51.29,109.61V110l1.5.63-1,1.72h.61l.88-1.51.34.14-.79,1.37h.44L54,111.1l.34.15-.62,1.07H54l.56-1,.28.11-.49.86.57,1h1.14l.57-1-.09-.15,3.15,1.32v-.36l-1.92-.81h.37L56.82,110H54.17l-.37.64-.34-.15.5-.86H57l1.54,2.67h.62l-1.85-3.2h-3.7L53,110.3Zm5,2.08-.2-.35h-.65l-.68-.29v0h1.49l.49.85Zm-1.88-1.28H56.6l1.09,1.87-.57-.23-.73-1.27H54.61l-.11.17-.34-.14Z" transform="translate(0.5 0.5)"/><path class="cls-1" d="M-.5-.5v141h200V-.5ZM66.83.5H99V22.83H66.83ZM33.67.5H65.83V22.83H33.67Zm0,23.33H65.83V46.17H33.67ZM.5.5H32.67V22.83H.5Zm0,23.33H32.67V46.17H.5ZM32.67,139.5H.5V117.17H32.67Zm132.66,0H133.17V117.17h32.16Zm0-46.67H133.17V70.5h32.16ZM198.5,139.5H166.33V117.17H198.5Zm0-23.33H166.33V93.83H198.5Zm0-23.34H166.33V70.5H198.5Zm0-23.33H166.33v-5h-1v5H133.17v-5h-1v5H129.4a6.65,6.65,0,0,1,1.18,1h1.59v3a6.55,6.55,0,0,1,.17,1.41V98l.83,0V93.83h32.16v22.34H133.17v-6.83l-.83,0v11a6.41,6.41,0,0,1-.17,1.46V139.5H100V126.88H99V139.5H66.83V126.88h-1V139.5H33.67V117.17h4.58v-.28c-.25-.27-.46-.51-.64-.72H33.67V109a39.14,39.14,0,0,1-.41-5h-.59v12.09H.5V93.83H23.39v-1H.5V70.5H23.39v-1H.5V47.17H32.67V67.63h1V47.17H65.83V67.42h1V47.17h26.4l1-1H66.83V23.83H99V41.39l1-1V23.83h16.56l1-1H100V.5h32.17V18l1,1V.5h32.16V22.83H133.17v-.21L132,23.83h.22V46.17H109.62l-1,1h23.55v6.48h1V47.17h32.16v6.48h1V47.17H198.5ZM165.33,23.83V46.17H133.17V23.83ZM198.5,46.17H166.33V23.83H198.5Zm0-23.34H166.33V.5H198.5Z" transform="translate(0.5 0.5)"/><polygon class="cls-1" points="99.5 67.92 100.5 67.92 100.5 56.29 99.5 57.29 99.5 67.92"/><path class="cls-1" d="M35.51,69.5l1,1h2.76a7.65,7.65,0,0,1,.78-1Z" transform="translate(0.5 0.5)"/></svg>