<svg id="Camada_1" data-name="Camada 1" xmlns="http://www.w3.org/2000/svg" viewBox="0 0 200 141"><defs><style>.cls-1{fill:#fff;}</style></defs><title>radar</title><path class="cls-1" d="M-.5-.5v141h200V-.5ZM100,.5h32.17V22.83H100ZM33.67,47.17H65.83V69.5H33.67Zm-1,92.33H.5V117.17H32.67Zm0-23.33H.5V93.83H32.67Zm0-23.34H.5V70.5H32.67Zm0-23.33H.5V47.17H32.67Zm0-23.33H.5V23.83H32.67Zm0-23.34H.5V.5H32.67ZM65.83,139.5H33.67V117.17H65.83Zm99.5,0H133.17V117.17h32.16Zm0-23.33H133.17V93.83h32.16Zm0-46.67H148.1a6.73,6.73,0,0,1-.51,1h17.74V92.83H133.17v-4.1l-1,1v3.1h-3.1l-1,1h4.1v22.34H105.73l-1,1h27.44V139.5H100V121.9l-.12.12a5.37,5.37,0,0,1-.88.71V139.5H66.83V117.17h5.89l-1-1H66.83v-4.89l-1-1v5.89H33.67V93.83h17a8.4,8.4,0,0,1-.19-1H33.67V70.5H65.83v3.32l1-1V70.5h2.32l1-1H66.83V47.17H80l1-1H66.83V27.68l-1-1V46.17H33.67V23.83H63l-1-1H33.67V.5H65.83V18.11l1,1V.5H99V22.83H70.56l1,1H99v4.34l1-1V23.83h32.17V46.17h-1.58l1,1h.58v.57l1,1V47.17h32.16Zm0-23.33H133.17V23.83h32.16Zm0-23.34H133.17V.5h32.16ZM198.5,139.5H166.33V117.17H198.5Zm0-23.33H166.33V93.83H198.5Zm0-23.34H166.33V70.5H198.5Zm0-23.33H166.33V47.17H198.5Zm0-23.33H166.33V23.83H198.5Zm0-23.34H166.33V.5H198.5Z" transform="translate(0.5 0.5)"/><path class="cls-1" d="M85.24,120.27a2.44,2.44,0,1,0,3.45,0A2.44,2.44,0,0,0,85.24,120.27Zm3,3a1.82,1.82,0,1,1,0-2.57A1.83,1.83,0,0,1,88.25,123.28Z" transform="translate(0.5 0.5)"/><path class="cls-1" d="M58.74,93.77a2.44,2.44,0,1,0-3.45,0A2.43,2.43,0,0,0,58.74,93.77Zm-3-3a1.82,1.82,0,1,1,0,2.58A1.83,1.83,0,0,1,55.73,90.76Z" transform="translate(0.5 0.5)"/><path class="cls-1" d="M110.42,32.76l-4.27-4.27a3.24,3.24,0,0,0-4.57,0l-2.45,2.44H75.75L59.12,14.3l-1.38,1.38,18,18H96.38L81,49.12a3.24,3.24,0,0,0,0,4.57l4,4L53.84,88.71a4.73,4.73,0,0,0,0,6.68l29.78,29.78a4.73,4.73,0,0,0,6.68,0L92.45,123l.86.86,2.39-2.4a2.8,2.8,0,0,0,2.73-.91L142.1,76.9c1.06-1.06,1.33-2.51.6-3.24l-.44-.44,2.9-2.91a4.73,4.73,0,0,0,0-6.68L115.38,33.85A4.72,4.72,0,0,0,110.42,32.76ZM58.61,15.68l.51-.51L76.25,32.29l-.52.52Zm18.94,17a.62.62,0,0,0,0-.87l-.31-.32H98.08l-1.52,1.52H77.22Zm3.83,20.53a2.63,2.63,0,0,1,0-3.71L102,28.92a2.62,2.62,0,0,1,3.7,0l4,4-1,1L85.34,57.21ZM142.27,74.1c.48.48.2,1.56-.6,2.37L98,120.13a2.59,2.59,0,0,1-1.78.84l2.31-2.31-.86-.86,44.15-44.15Zm2.45-10a4.1,4.1,0,0,1,0,5.81l-2.9,2.9h0l2.39-2.39-1.07-1.08-2.4,2.39h0l1.52-1.51a4.73,4.73,0,0,0,0-6.68L115.52,36.77a4.72,4.72,0,0,0-6.67,0L85.93,59.69a4.73,4.73,0,0,0,0,6.68l26.71,26.71a4.71,4.71,0,0,0,6.68,0l21-21h0l-2.39,2.39L139,75.6l2.39-2.4,0,0L89.87,124.74a4.12,4.12,0,0,1-5.81,0L54.28,95a4.1,4.1,0,0,1,0-5.81L85.34,58.08l23.79-23.79a4.1,4.1,0,0,1,5.81,0Zm-4.88,7.6h0l-21,21a4.12,4.12,0,0,1-5.81,0L86.36,65.94a4.12,4.12,0,0,1,0-5.81l22.92-22.92a4.12,4.12,0,0,1,5.81,0L141.8,63.92a4.12,4.12,0,0,1,0,5.81l-1.51,1.52,0,0Z" transform="translate(0.5 0.5)"/><path class="cls-1" d="M107.92,92.31,86.7,71.09a1.94,1.94,0,0,0-2.75,0l-22,22a2,2,0,0,0,0,2.76L83.14,117.1a2,2,0,0,0,2.75,0l22-22A1.94,1.94,0,0,0,107.92,92.31ZM83.57,116.66,62.35,95.44a1.33,1.33,0,0,1,0-1.88l22-22a1.34,1.34,0,0,1,1.89,0l21.22,21.22a1.34,1.34,0,0,1,0,1.89l-22,22A1.34,1.34,0,0,1,83.57,116.66Z" transform="translate(0.5 0.5)"/><path class="cls-1" d="M110.34,95.17a2.44,2.44,0,1,0,3.45,0A2.43,2.43,0,0,0,110.34,95.17Zm3,3a1.82,1.82,0,1,1,0-2.58A1.83,1.83,0,0,1,113.36,98.18Z" transform="translate(0.5 0.5)"/><path class="cls-1" d="M80.4,65.22a2.44,2.44,0,1,0,3.45,0A2.44,2.44,0,0,0,80.4,65.22Zm3,3a1.82,1.82,0,1,1,0-2.57A1.83,1.83,0,0,1,83.41,68.23Z" transform="translate(0.5 0.5)"/><rect class="cls-1" x="76.7" y="85.61" width="4.67" height="4.51" rx="0.6" transform="translate(-38.48 82.12) rotate(-45)"/><path class="cls-1" d="M78,83.11l-4,4a1.29,1.29,0,0,0,0,1.82l3.84,3.84a1.29,1.29,0,0,0,1.82,0l4-4a1.29,1.29,0,0,0,0-1.82l-3.84-3.83A1.29,1.29,0,0,0,78,83.11ZM74.2,87.87l0,.24A.65.65,0,0,1,74.2,87.87Zm9-.49a.68.68,0,0,1,0,1l-4,4a.46.46,0,0,1-.18.13V91.31a.66.66,0,0,1-.49-.2l-2.7-2.69a.69.69,0,0,1,0-1l2.82-2.82a.74.74,0,0,1,.4-.19V83.37a.63.63,0,0,1,.31.17Z" transform="translate(0.5 0.5)"/><rect class="cls-1" x="70.46" y="91.85" width="4.67" height="4.51" rx="0.6" transform="translate(-44.73 79.54) rotate(-45)"/><path class="cls-1" d="M71.71,89.35l-4,4a1.29,1.29,0,0,0,0,1.82L71.53,99a1.29,1.29,0,0,0,1.82,0l4-4a1.29,1.29,0,0,0,0-1.82l-3.83-3.84A1.29,1.29,0,0,0,71.71,89.35ZM68,94.11v.24A.65.65,0,0,1,68,94.11Zm9-.49a.68.68,0,0,1,0,.95l-4,4a.71.71,0,0,1-.18.12V97.56a.7.7,0,0,1-.49-.21l-2.69-2.69a.68.68,0,0,1,0-1l2.82-2.82a.64.64,0,0,1,.4-.2V89.61a.79.79,0,0,1,.31.17Z" transform="translate(0.5 0.5)"/><rect class="cls-1" x="82.85" y="91.76" width="4.67" height="4.51" rx="0.6" transform="translate(-41.03 88.27) rotate(-45)"/><path class="cls-1" d="M84.1,89.26l-4,4a1.29,1.29,0,0,0,0,1.82l3.84,3.84a1.29,1.29,0,0,0,1.82,0l4-4a1.27,1.27,0,0,0,0-1.82l-3.83-3.83A1.27,1.27,0,0,0,84.1,89.26ZM80.34,94v.24A1,1,0,0,1,80.34,94Zm9-.49a.68.68,0,0,1,0,1l-4,4a.46.46,0,0,1-.18.13V97.46a.66.66,0,0,1-.49-.2l-2.7-2.69a.69.69,0,0,1,0-1l2.82-2.82a.71.71,0,0,1,.4-.19V89.52a.6.6,0,0,1,.31.17Z" transform="translate(0.5 0.5)"/><rect class="cls-1" x="76.61" y="98" width="4.67" height="4.51" rx="0.6" transform="translate(-47.27 85.69) rotate(-45)"/><path class="cls-1" d="M77.86,95.5l-4,4a1.28,1.28,0,0,0,0,1.81l3.84,3.84a1.29,1.29,0,0,0,1.82,0l4-4a1.28,1.28,0,0,0,0-1.81L79.68,95.5A1.29,1.29,0,0,0,77.86,95.5Zm-3.76,4.76v.24A.65.65,0,0,1,74.1,100.26Zm9-.49a.68.68,0,0,1,0,1l-4,4a.71.71,0,0,1-.18.12v-1.15a.7.7,0,0,1-.49-.21l-2.69-2.69a.68.68,0,0,1,0-1L78.52,97a.64.64,0,0,1,.4-.2V95.76a.68.68,0,0,1,.31.17Z" transform="translate(0.5 0.5)"/><rect class="cls-1" x="89" y="97.91" width="4.67" height="4.51" rx="0.6" transform="translate(-43.58 94.42) rotate(-45)"/><path class="cls-1" d="M90.25,95.41l-4,4a1.29,1.29,0,0,0,0,1.82l3.84,3.84a1.29,1.29,0,0,0,1.82,0l4-4a1.27,1.27,0,0,0,0-1.82l-3.83-3.83A1.27,1.27,0,0,0,90.25,95.41Zm-3.76,4.76v.24A.65.65,0,0,1,86.49,100.17Zm9-.49a.68.68,0,0,1,0,.95l-4,4a.46.46,0,0,1-.18.13v-1.16a.66.66,0,0,1-.49-.2l-2.7-2.69a.69.69,0,0,1,0-1l2.82-2.82a.71.71,0,0,1,.4-.19V95.67a.6.6,0,0,1,.31.17Z" transform="translate(0.5 0.5)"/><rect class="cls-1" x="82.76" y="104.15" width="4.67" height="4.51" rx="0.6" transform="translate(-49.82 91.84) rotate(-45)"/><path class="cls-1" d="M84,101.65l-4,4a1.29,1.29,0,0,0,0,1.82l3.84,3.84a1.28,1.28,0,0,0,1.81,0l4-4a1.29,1.29,0,0,0,0-1.82l-3.84-3.83A1.28,1.28,0,0,0,84,101.65Zm-3.76,4.76v.24A.65.65,0,0,1,80.25,106.41Zm9-.49a.68.68,0,0,1,0,1l-4,4A.55.55,0,0,1,85,111v-1.16a.65.65,0,0,1-.49-.2L81.85,107a.68.68,0,0,1,0-1l2.82-2.83a.68.68,0,0,1,.4-.19v-1.06a.68.68,0,0,1,.31.17Z" transform="translate(0.5 0.5)"/><rect class="cls-1" x="82.94" y="79.37" width="4.67" height="4.51" rx="0.6" transform="translate(-32.24 84.71) rotate(-45)"/><rect class="cls-1" x="91.9" y="84.32" width="4.67" height="13.21" rx="0.6" transform="translate(-36.19 93.77) rotate(-45)"/><path class="cls-1" d="M84.19,76.86l-4,4a1.29,1.29,0,0,0,0,1.82L84,86.53a1.27,1.27,0,0,0,1.82,0l4-4a1.29,1.29,0,0,0,0-1.82L86,76.86A1.29,1.29,0,0,0,84.19,76.86Zm-3.75,4.77,0,.23A.58.58,0,0,1,80.44,81.63Zm9-.5a.66.66,0,0,1,0,1l-4,4-.19.13V85.07a.71.71,0,0,1-.49-.2L82,82.17a.68.68,0,0,1,0-1l2.82-2.82a.63.63,0,0,1,.4-.19V77.12a.68.68,0,0,1,.32.18Z" transform="translate(0.5 0.5)"/><path class="cls-1" d="M90.34,83l-4,4a1.27,1.27,0,0,0,0,1.82l10,10a1.27,1.27,0,0,0,1.82,0l4-4a1.29,1.29,0,0,0,0-1.82l-10-10A1.29,1.29,0,0,0,90.34,83Zm11.37,10.42a.68.68,0,0,1,0,.95l-4,4a.71.71,0,0,1-.18.12v-.85a.7.7,0,0,1-.49-.2l-9.15-9.15a.7.7,0,0,1,0-1l2.83-2.82a.63.63,0,0,1,.4-.19l.12-1.09a.67.67,0,0,1,.49.2Z" transform="translate(0.5 0.5)"/><path class="cls-1" d="M103.77,54.61a14.53,14.53,0,0,0-4,7.74l2.34.37a12.21,12.21,0,0,1,9.8-9.81l-.37-2.33A14.52,14.52,0,0,0,103.77,54.61Z" transform="translate(0.5 0.5)"/><path class="cls-1" d="M113.61,65.17l-2.19-.35a2.65,2.65,0,0,0,.77,2,2.47,2.47,0,0,0,.41.33Z" transform="translate(0.5 0.5)"/><path class="cls-1" d="M112.33,55.85,112,53.52a11.58,11.58,0,0,0-9.29,9.29l2.34.37a9.21,9.21,0,0,1,7.32-7.33Z" transform="translate(0.5 0.5)"/><path class="cls-1" d="M116.17,66.59a2.67,2.67,0,0,0,.41-2.59l-2,1Z" transform="translate(0.5 0.5)"/><path class="cls-1" d="M116.31,63.45A3.21,3.21,0,0,0,116,63a2.66,2.66,0,0,0-2-.78l.35,2.2Z" transform="translate(0.5 0.5)"/><path class="cls-1" d="M113.27,61.75l-.37-2.34a5.62,5.62,0,0,0-4.34,4.33l2.34.37a3.29,3.29,0,0,1,2.37-2.36Z" transform="translate(0.5 0.5)"/><path class="cls-1" d="M109.65,60.5a6.15,6.15,0,0,1,3.15-1.7l-.37-2.34a8.64,8.64,0,0,0-6.82,6.82l2.34.37A6.23,6.23,0,0,1,109.65,60.5Z" transform="translate(0.5 0.5)"/><path class="cls-1" d="M119,62.09a6.07,6.07,0,0,0-.89-1.16,5.66,5.66,0,0,0-4.58-1.62l.37,2.34a3.31,3.31,0,0,1,2.54,1,3.45,3.45,0,0,1,.45.56Z" transform="translate(0.5 0.5)"/><path class="cls-1" d="M110.81,64.72l-2.35-.37a5.68,5.68,0,0,0,1.63,4.58,5.51,5.51,0,0,0,1.16.89l1.07-2.12a2.64,2.64,0,0,1-.56-.45A3.23,3.23,0,0,1,110.81,64.72Z" transform="translate(0.5 0.5)"/><path class="cls-1" d="M107.86,64.26l-2.34-.37A8.6,8.6,0,0,0,108,71a8.71,8.71,0,0,0,1.91,1.44l1.08-2.1a6.34,6.34,0,0,1-1.32-1A6.23,6.23,0,0,1,107.86,64.26Z" transform="translate(0.5 0.5)"/><path class="cls-1" d="M118.29,68.7a5.68,5.68,0,0,0,1-6.06l-2.11,1.08a3.3,3.3,0,0,1-.53,3.31Z" transform="translate(0.5 0.5)"/><path class="cls-1" d="M103.33,54.18A15.14,15.14,0,0,1,111.4,50L111,47.64A17.52,17.52,0,0,0,96.79,61.88l2.33.37A15.14,15.14,0,0,1,103.33,54.18Z" transform="translate(0.5 0.5)"/><path class="cls-1" d="M121.62,60.74a8.2,8.2,0,0,0-1.44-1.91A8.59,8.59,0,0,0,113,56.37l.37,2.33a6.31,6.31,0,0,1,6.11,3.11Z" transform="translate(0.5 0.5)"/><path class="cls-1" d="M102,63.32,99.63,63a14.59,14.59,0,0,0,4.14,12.3,14.29,14.29,0,0,0,3.42,2.53l1.07-2.1A12.24,12.24,0,0,1,102,63.32Z" transform="translate(0.5 0.5)"/><path class="cls-1" d="M124.28,59.39a11.57,11.57,0,0,0-11.71-6l.37,2.33a9.2,9.2,0,0,1,9.23,4.7Z" transform="translate(0.5 0.5)"/><path class="cls-1" d="M104.91,63.79l-2.33-.37a11.57,11.57,0,0,0,6,11.71L109.61,73a9.2,9.2,0,0,1-4.7-9.23Z" transform="translate(0.5 0.5)"/><path class="cls-1" d="M112.19,63a2.73,2.73,0,0,0-.68,1.17l2.2.35-.35-2.2A2.64,2.64,0,0,0,112.19,63Z" transform="translate(0.5 0.5)"/><path class="cls-1" d="M115.74,67l-1.58-1.57-1,2A2.67,2.67,0,0,0,115.74,67Z" transform="translate(0.5 0.5)"/><path class="cls-1" d="M111.51,70.64l-1.07,2.11A8.62,8.62,0,0,0,120,71.24l-1.67-1.67A6.26,6.26,0,0,1,111.51,70.64Z" transform="translate(0.5 0.5)"/><path class="cls-1" d="M112.87,68l-1.08,2.12a5.68,5.68,0,0,0,6.06-1l-1.67-1.68A3.3,3.3,0,0,1,112.87,68Z" transform="translate(0.5 0.5)"/><path class="cls-1" d="M109.13,38.15,87.3,60a4.43,4.43,0,0,0,0,6.25l25.49,25.48a4.42,4.42,0,0,0,6.24,0l21.83-21.83a4.43,4.43,0,0,0,0-6.25L115.38,38.15A4.43,4.43,0,0,0,109.13,38.15Zm17.81,39.64a18.19,18.19,0,1,1,0-25.72A18.21,18.21,0,0,1,126.94,77.79Z" transform="translate(0.5 0.5)"/><path class="cls-1" d="M111.64,47.54l.37,2.34a15.16,15.16,0,0,1,12.82,4.3,14.89,14.89,0,0,1,2.65,3.58l2.11-1.08a17.35,17.35,0,0,0-3.09-4.17A17.54,17.54,0,0,0,111.64,47.54Z" transform="translate(0.5 0.5)"/><path class="cls-1" d="M125,75.46l1.68,1.67a17.62,17.62,0,0,0,3.15-19.9l-2.11,1.07A15.22,15.22,0,0,1,125,75.46Z" transform="translate(0.5 0.5)"/><path class="cls-1" d="M120.4,70.81a8.66,8.66,0,0,0,1.51-9.52l-2.11,1.07a6.29,6.29,0,0,1-1.08,6.78Z" transform="translate(0.5 0.5)"/><path class="cls-1" d="M124.61,75a14.61,14.61,0,0,0,2.6-16.44l-2.1,1.08a12.25,12.25,0,0,1-2.17,13.69Z" transform="translate(0.5 0.5)"/><path class="cls-1" d="M122.5,72.92a11.63,11.63,0,0,0,2.06-13L122.45,61a9.24,9.24,0,0,1-1.62,10.23Z" transform="translate(0.5 0.5)"/><path class="cls-1" d="M124.4,54.61a14.61,14.61,0,0,0-12.3-4.13l.37,2.34a12.2,12.2,0,0,1,12.36,6.29L126.94,58A14.82,14.82,0,0,0,124.4,54.61Z" transform="translate(0.5 0.5)"/><path class="cls-1" d="M110.16,73.3l-1.07,2.11a11.63,11.63,0,0,0,13-2.06l-1.67-1.67A9.26,9.26,0,0,1,110.16,73.3Z" transform="translate(0.5 0.5)"/><path class="cls-1" d="M108.81,76l-1.08,2.1a14.61,14.61,0,0,0,16.44-2.6l-1.67-1.67A12.25,12.25,0,0,1,108.81,76Z" transform="translate(0.5 0.5)"/><path class="cls-1" d="M103.33,75.68A15.19,15.19,0,0,1,99,62.86l-2.34-.37a17.54,17.54,0,0,0,5,14.86,17.35,17.35,0,0,0,4.17,3.09l1.08-2.11A14.89,14.89,0,0,1,103.33,75.68Z" transform="translate(0.5 0.5)"/><path class="cls-1" d="M107.46,78.61l-1.08,2.11a17.6,17.6,0,0,0,19.9-3.16l-1.67-1.67A15.22,15.22,0,0,1,107.46,78.61Z" transform="translate(0.5 0.5)"/></svg>